<svg xmlns="http://www.w3.org/2000/svg" viewBox="0 -0.5 80 80" shape-rendering="crispEdges">
<metadata>Made with Pixels to Svg https://codepen.io/shshaw/pen/XbxvNj</metadata>
<path stroke="#000000" d="M30 0h20M30 1h20M30 2h20M30 3h20M30 4h20M20 5h10M50 5h10M20 6h10M50 6h10M20 7h10M50 7h10M20 8h10M50 8h10M20 9h10M50 9h10M15 10h5M60 10h5M15 11h5M60 11h5M15 12h5M60 12h5M15 13h5M60 13h5M15 14h5M60 14h5M10 15h5M65 15h5M10 16h5M65 16h5M10 17h5M65 17h5M10 18h5M65 18h5M10 19h5M65 19h5M5 20h5M70 20h5M5 21h5M70 21h5M5 22h5M70 22h5M5 23h5M70 23h5M5 24h5M70 24h5M5 25h5M70 25h5M5 26h5M70 26h5M5 27h5M70 27h5M5 28h5M70 28h5M5 29h5M70 29h5M0 30h10M75 30h5M0 31h10M75 31h5M0 32h10M75 32h5M0 33h10M75 33h5M0 34h10M75 34h5M0 35h15M65 35h15M0 36h15M65 36h15M0 37h15M65 37h15M0 38h15M65 38h15M0 39h15M65 39h15M0 40h5M10 40h10M25 40h20M55 40h15M75 40h5M0 41h5M10 41h10M25 41h20M55 41h15M75 41h5M0 42h5M10 42h10M25 42h20M55 42h15M75 42h5M0 43h5M10 43h10M25 43h20M55 43h15M75 43h5M0 44h5M10 44h10M25 44h20M55 44h15M75 44h5M0 45h5M15 45h15M40 45h20M75 45h5M0 46h5M15 46h15M40 46h20M75 46h5M0 47h5M15 47h15M40 47h20M75 47h5M0 48h5M15 48h15M40 48h20M75 48h5M0 49h5M15 49h15M40 49h20M75 49h5M5 50h5M20 50h10M40 50h10M70 50h5M5 51h5M20 51h10M40 51h10M70 51h5M5 52h5M20 52h10M40 52h10M70 52h5M5 53h5M20 53h10M40 53h10M70 53h5M5 54h5M20 54h10M40 54h10M70 54h5M5 55h5M25 55h20M70 55h5M5 56h5M25 56h20M70 56h5M5 57h5M25 57h20M70 57h5M5 58h5M25 58h20M70 58h5M5 59h5M25 59h20M70 59h5M10 60h5M65 60h5M10 61h5M65 61h5M10 62h5M65 62h5M10 63h5M65 63h5M10 64h5M65 64h5M15 65h5M60 65h5M15 66h5M60 66h5M15 67h5M60 67h5M15 68h5M60 68h5M15 69h5M60 69h5M20 70h10M50 70h10M20 71h10M50 71h10M20 72h10M50 72h10M20 73h10M50 73h10M20 74h10M50 74h10M30 75h20M30 76h20M30 77h20M30 78h20M30 79h20" />
<path stroke="#eb0c17" d="M30 5h20M30 6h20M30 7h20M30 8h20M30 9h20M20 10h5M35 10h25M20 11h5M35 11h25M20 12h5M35 12h25M20 13h5M35 13h25M20 14h5M35 14h25M15 15h5M40 15h25M15 16h5M40 16h25M15 17h5M40 17h25M15 18h5M40 18h25M15 19h5M40 19h25M10 20h5M45 20h25M10 21h5M45 21h25M10 22h5M45 22h25M10 23h5M45 23h25M10 24h5M45 24h25M10 25h5M45 25h25M10 26h5M45 26h25M10 27h5M45 27h25M10 28h5M45 28h25M10 29h5M45 29h25M10 30h10M40 30h35M10 31h10M40 31h35M10 32h10M40 32h35M10 33h10M40 33h35M10 34h10M40 34h35M15 35h10M35 35h30M15 36h10M35 36h30M15 37h10M35 37h30M15 38h10M35 38h30M15 39h10M35 39h30M20 40h5M45 40h10M20 41h5M45 41h10M20 42h5M45 42h10M20 43h5M45 43h10M20 44h5M45 44h10" />
<path stroke="#e82727" d="M25 10h10M25 11h10M25 12h10M25 13h10M25 14h10M20 15h5M35 15h5M20 16h5M35 16h5M20 17h5M35 17h5M20 18h5M35 18h5M20 19h5M35 19h5M15 20h5M40 20h5M15 21h5M40 21h5M15 22h5M40 22h5M15 23h5M40 23h5M15 24h5M40 24h5M15 25h5M40 25h5M15 26h5M40 26h5M15 27h5M40 27h5M15 28h5M40 28h5M15 29h5M40 29h5M20 30h5M35 30h5M20 31h5M35 31h5M20 32h5M35 32h5M20 33h5M35 33h5M20 34h5M35 34h5M25 35h10M25 36h10M25 37h10M25 38h10M25 39h10" />
<path stroke="#e86060" d="M25 15h10M25 16h10M25 17h10M25 18h10M25 19h10M20 20h5M35 20h5M20 21h5M35 21h5M20 22h5M35 22h5M20 23h5M35 23h5M20 24h5M35 24h5M20 25h5M35 25h5M20 26h5M35 26h5M20 27h5M35 27h5M20 28h5M35 28h5M20 29h5M35 29h5M25 30h10M25 31h10M25 32h10M25 33h10M25 34h10" />
<path stroke="#ffffff" d="M25 20h10M25 21h10M25 22h10M25 23h10M25 24h10M25 25h10M25 26h10M25 27h10M25 28h10M25 29h10M10 45h5M30 45h5M60 45h10M10 46h5M30 46h5M60 46h10M10 47h5M30 47h5M60 47h10M10 48h5M30 48h5M60 48h10M10 49h5M30 49h5M60 49h10M15 50h5M30 50h10M50 50h15M15 51h5M30 51h10M50 51h15M15 52h5M30 52h10M50 52h15M15 53h5M30 53h10M50 53h15M15 54h5M30 54h10M50 54h15M15 55h10M45 55h20M15 56h10M45 56h20M15 57h10M45 57h20M15 58h10M45 58h20M15 59h10M45 59h20M20 60h40M20 61h40M20 62h40M20 63h40M20 64h40M25 65h30M25 66h30M25 67h30M25 68h30M25 69h30" />
<path stroke="#c3c3c3" d="M5 40h5M70 40h5M5 41h5M70 41h5M5 42h5M70 42h5M5 43h5M70 43h5M5 44h5M70 44h5M5 45h5M70 45h5M5 46h5M70 46h5M5 47h5M70 47h5M5 48h5M70 48h5M5 49h5M70 49h5M10 50h5M65 50h5M10 51h5M65 51h5M10 52h5M65 52h5M10 53h5M65 53h5M10 54h5M65 54h5M10 55h5M65 55h5M10 56h5M65 56h5M10 57h5M65 57h5M10 58h5M65 58h5M10 59h5M65 59h5M15 60h5M60 60h5M15 61h5M60 61h5M15 62h5M60 62h5M15 63h5M60 63h5M15 64h5M60 64h5M20 65h5M55 65h5M20 66h5M55 66h5M20 67h5M55 67h5M20 68h5M55 68h5M20 69h5M55 69h5M30 70h20M30 71h20M30 72h20M30 73h20M30 74h20" />
<path stroke="#d1d1d1" d="M35 45h5M35 46h5M35 47h5M35 48h5M35 49h5" />
</svg>